<svg xmlns="http://www.w3.org/2000/svg" width="200" height="50.745" viewBox="0 0 200 50.745">
    <defs>
        <linearGradient id="linear-gradient" x1=".5" x2=".5" y1="-.024" y2="1.341" gradientUnits="objectBoundingBox">
            <stop offset="0" stop-color="#ff8e4c"/>
            <stop offset="1" stop-color="#fe5e3e"/>
        </linearGradient>
        <linearGradient id="linear-gradient-2" x1=".952" x2=".183" y1=".905" y2=".206" gradientUnits="objectBoundingBox">
            <stop offset=".288" stop-color="#fe6c42"/>
            <stop offset="1" stop-color="#191f1f"/>
        </linearGradient>
        <clipPath id="clip-path">
            <path id="Trazado_236" d="M625.446 593.815l-2.06 2.09-4.006-4.018 2.017-2.018z" class="cls-1" transform="translate(-619.38 -589.869)"/>
        </clipPath>
        <clipPath id="clip-path-2">
            <path id="Rectángulo_204" d="M0 0H8.471V8.442H0z" class="cls-1"/>
        </clipPath>
        <style>
            .cls-1{fill:none}.cls-5{clip-path:url(#clip-path-2)}.cls-7{fill:#004853}
        </style>
    </defs>
    <g id="logo-citymap-dark" transform="translate(-544.248 -434.514)">
        <g id="Grupo_259" transform="translate(544.248 434.514)">
            <path id="Trazado_235" fill="url(#linear-gradient)" d="M574.334 485.259a1.668 1.668 0 0 1-1.236-.544l-4.764-4.786-4.776 4.813a1.612 1.612 0 0 1-1.223.512 1.41 1.41 0 0 1-1.122-.512l-12.5-12.528c-.065-.067-.294-.266-.349-.341a21.476 21.476 0 0 1-4.113-13.306 24.053 24.053 0 0 1 48.106 0 21.3 21.3 0 0 1-4.043 13.2 1.863 1.863 0 0 1-.183.219l-12.637 12.647a1.43 1.43 0 0 1-1.16.626zm-3.982-7.319l3.948 3.88 11.321-11.335a3.736 3.736 0 0 0 .467-.565 20.043 20.043 0 0 0 3.335-11.354c0-11.243-9.878-21.181-21.122-21.181s-21.181 9.937-21.181 21.181a21.039 21.039 0 0 0 2.664 10.322 8.731 8.731 0 0 0 1.44 1.878l11.168 11.1 3.951-3.961-11.706-11.65a1.567 1.567 0 0 1-.551-1.282v-8.314a1.759 1.759 0 0 1 .647-1.4L567.1 446.6a1.648 1.648 0 0 1 2.318-.044l12.45 8.714a1.456 1.456 0 0 1 .692 1.372v8.416a1.744 1.744 0 0 1-.6 1.282zm-13.405-13.462l11.383 11.413 11.316-11.283v-7.393l-11.325-7.993-11.4 7.993z" transform="translate(-544.248 -434.514)"/>
        </g>
        <g id="Grupo_267" opacity="0.5" transform="translate(562.319 471.881)">
            <g id="Grupo_266">
                <g id="Grupo_265" clip-path="url(#clip-path)">
                    <g id="Grupo_264" transform="translate(-1.203 -1.203)">
                        <g id="Grupo_263">
                            <g id="Grupo_262" class="cls-5">
                                <g id="Grupo_261">
                                    <g id="Grupo_260" class="cls-5"/>
                                </g>
                            </g>
                        </g>
                    </g>
                </g>
            </g>
        </g>
        <path id="Trazado_237" fill="url(#linear-gradient-2)" d="M650.28 618.9l-1.981 2.114-4.008-3.985 2.056-2.029z" opacity="0.5" transform="translate(-75.98 -137.075)"/>
        <path id="Trazado_238" d="M789.266 527.5a9.776 9.776 0 0 1 0-19.551 9.87 9.87 0 0 1 8.493 4.87 1.579 1.579 0 0 1-.56 2.119 1.627 1.627 0 0 1-.762.19 1.6 1.6 0 0 1-1.366-.759 6.7 6.7 0 0 0-12.5 3.356 6.782 6.782 0 0 0 6.692 6.692 6.645 6.645 0 0 0 5.637-3.083 1.563 1.563 0 0 1 1.318-.7 1.625 1.625 0 0 1 .845.236 1.553 1.553 0 0 1 .419 2.146 9.7 9.7 0 0 1-8.216 4.484z" class="cls-7" transform="translate(-178.691 -55.775)"/>
        <path id="Trazado_239" d="M876.4 501.827a1.545 1.545 0 0 1-1.562-1.562V483.8a1.542 1.542 0 0 1 3.083 0v16.468a1.526 1.526 0 0 1-1.521 1.559zm0-24.6a1.564 1.564 0 0 1-1.09-.431 1.542 1.542 0 1 1 2.179-2.18 1.522 1.522 0 0 1-1.09 2.611z" class="cls-7" transform="translate(-251.076 -30.098)"/>
        <path id="Trazado_240" d="M912.735 495.375a1.563 1.563 0 0 1-1.521-1.562v-14.905h-3.424a1.563 1.563 0 0 1-1.521-1.562 1.523 1.523 0 0 1 1.521-1.521h3.423v-8.655a1.542 1.542 0 0 1 3.084 0v8.654h3.382a1.525 1.525 0 0 1 1.562 1.521 1.564 1.564 0 0 1-1.562 1.562H914.3v14.906a1.564 1.564 0 0 1-1.565 1.562z" class="cls-7" transform="translate(-274.945 -23.646)"/>
        <path id="Trazado_241" d="M986.168 538.066a7.917 7.917 0 0 1-7.128-4.472 1.492 1.492 0 0 1-.074-1.161 1.528 1.528 0 0 1 .791-.889 1.422 1.422 0 0 1 .644-.153 1.52 1.52 0 0 1 1.367.859 4.941 4.941 0 0 0 4.4 2.733 4.879 4.879 0 0 0 4.894-4.853v-3.792l-.729.437a7.589 7.589 0 0 1-3.961 1.075 7.752 7.752 0 0 1-7.733-7.655v-10.212a1.521 1.521 0 1 1 3.042 0v10.134a4.69 4.69 0 1 0 9.38 0v-10.134a1.542 1.542 0 0 1 3.084 0v20.146a7.966 7.966 0 0 1-7.977 7.937z" class="cls-7" transform="translate(-329.909 -56.161)"/>
        <path id="Trazado_242" d="M1087.28 527.674a1.526 1.526 0 0 1-1.522-1.562v-10.3a4.649 4.649 0 0 0-9.3 0v10.3a1.526 1.526 0 0 1-1.521 1.562 1.564 1.564 0 0 1-1.562-1.562v-10.3a4.629 4.629 0 0 0-9.257 0v10.3a1.526 1.526 0 0 1-1.522 1.562 1.545 1.545 0 0 1-1.562-1.562v-10.3a7.716 7.716 0 0 1 13.538-5.039l.365.424.365-.424a7.716 7.716 0 0 1 13.538 4.963l-.145.145.146.29v9.939a1.564 1.564 0 0 1-1.561 1.564z" class="cls-7" transform="translate(-392.486 -55.904)"/>
        <path id="Trazado_243" d="M1212.948 527.551a1.676 1.676 0 0 1-1.48-1.562v-1.03l-.79.661a8.452 8.452 0 0 1-5.739 1.931 9.5 9.5 0 0 1-9.858-9.571 9.752 9.752 0 0 1 9.858-9.857 9.5 9.5 0 0 1 9.572 9.857v8.009a1.5 1.5 0 0 1-1.563 1.562zm-8.009-16.386a6.906 6.906 0 0 0-6.815 6.815 6.684 6.684 0 0 0 6.815 6.529 6.386 6.386 0 0 0 6.529-6.529 6.684 6.684 0 0 0-6.529-6.815z" class="cls-7" transform="translate(-494.289 -55.904)"/>
        <path id="Trazado_244" d="M1296.028 538.107a1.526 1.526 0 0 1-1.562-1.521v-18.348a9.755 9.755 0 1 1 3.856 7.79l-.772-.589v11.147a1.523 1.523 0 0 1-1.522 1.521zm8.213-26.561a6.7 6.7 0 0 0-6.692 6.692v.041a6.693 6.693 0 1 0 6.692-6.733z" class="cls-7" transform="translate(-569.77 -56.161)"/>
    </g>
</svg>
